# xmcd
#
# Track frame offsets:
#	180
#	29278
#	81053
#	107560
#	146216
#	201923
#	227619
#	264595
#
# Disc length: 4202 seconds
#
# Revision: 1
# Processed by: cddbd v1.4PL0 Copyright (c) Steve Scherf et al.
# Submitted via: audiograbber 1.80
#
DISCID=68106808
DTITLE=The Bind - Big Bulb Theory #9
DYEAR=1900
DGENRE=
TTITLE0=Celebration of Life
TTITLE1=In the Name of the Father
TTITLE2=Dance of the Creator
TTITLE3=Morphogenesis
TTITLE4=Cannabanoids in Body Tissue
TTITLE5=Hypertranscience
TTITLE6=Redeemer
TTITLE7=Proud to be Hum Man
EXTD=
EXTT0=
EXTT1=
EXTT2=
EXTT3=
EXTT4=
EXTT5=
EXTT6=
EXTT7=
PLAYORDER=
